<svg xmlns="http://www.w3.org/2000/svg" viewBox="0 0 590.6 590.6"><defs><style>.cls-1{fill:#f1c400;}.cls-2{fill:none;stroke:#fff;stroke-linecap:round;stroke-miterlimit:10;stroke-width:19.13px;}.cls-3,.cls-4{fill:#fff;}.cls-4{font-size:229.61px;font-family:Chantal-Medium, Chantal;}.cls-5{font-size:114.8px;}</style></defs><title>Fichier 150</title><g id="Calque_2" data-name="Calque 2"><g id="BG"><circle class="cls-1" cx="295.68" cy="295.64" r="294.5"/></g><g id="horloge_B" data-name="horloge B"><path id="rond" class="cls-2" d="M155.74,45.91A284.37,284.37,0,0,1,295.3,9.57C453.1,9.57,581,137.49,581,295.3S453.1,581,295.3,581,9.57,453.1,9.57,295.3A284.52,284.52,0,0,1,72.89,115.9"/><path class="cls-3" d="M567.37,281.56l-8.39-.08c-.54,0-1.08,0-1.61.09h-.21l-8.39-.08a13.78,13.78,0,0,0-.22,27.56l8.38.06a12.68,12.68,0,0,0,1.52-.08l.3,0,8.39.06a13.62,13.62,0,0,0,6.89-1.77,13.78,13.78,0,0,0-6.66-25.77Z"/><path class="cls-3" d="M39.27,281.56l-8.38-.08c-.55,0-1.08,0-1.61.09h-.21l-8.39-.08A13.78,13.78,0,0,0,20.46,309l8.38.06a12.79,12.79,0,0,0,1.52-.08l.3,0,8.38.06a13.77,13.77,0,1,0,.23-27.54Z"/><path class="cls-3" d="M309,38.62l.08-8.38a14.21,14.21,0,0,0-.09-1.61c0-.07,0-.14,0-.21l.08-8.39a13.78,13.78,0,1,0-27.55-.22l-.07,8.38a12.79,12.79,0,0,0,.08,1.52c0,.1,0,.2,0,.3l-.07,8.38a13.77,13.77,0,1,0,27.54.23Z"/><path class="cls-3" d="M309,570.54l.08-8.38a14.21,14.21,0,0,0-.09-1.61c0-.07,0-.14,0-.21l.08-8.39a13.78,13.78,0,0,0-27.55-.22l-.07,8.38a12.79,12.79,0,0,0,.08,1.52c0,.1,0,.2,0,.3l-.07,8.38a13.77,13.77,0,1,0,27.54.23Z"/><path class="cls-3" d="M88.87,484.68l5.77-6.08a13.78,13.78,0,1,1,20,19l-5.77,6.08a13.78,13.78,0,1,1-20-19Z"/><path class="cls-3" d="M483.56,502l-5.83-6a13.78,13.78,0,0,1,19.82-19.14l5.82,6A13.77,13.77,0,1,1,483.56,502Z"/><path class="cls-3" d="M478,95.57l5.77-6.08a13.78,13.78,0,1,1,20,19L498,114.53a13.78,13.78,0,1,1-20-19Z"/></g><g id="timing_B" data-name="timing B"><text class="cls-4" transform="translate(238.97 296.26)">1<tspan class="cls-5"><tspan x="-175.99" y="95.67">semaine</tspan></tspan></text></g></g></svg>